<svg xmlns="http://www.w3.org/2000/svg" viewBox="220 220 580 580">
  <path d="M303.368 235.987q2.803-.006 5.604-.017c5.111-.014 10.222-.01 15.333-.003 5.522.005 11.042-.008 16.564-.019 10.808-.018 21.615-.019 32.424-.013q13.182.006 26.364-.002l3.793-.003 7.628-.004c23.839-.014 47.678-.009 71.518.003 21.793.01 43.586-.003 65.379-.028q33.59-.038 67.179-.028 18.847.006 37.696-.018a10347 10347 0 0 1 32.095.002c5.454.009 10.908.011 16.362-.004q7.502-.021 15.003.01 2.701.005 5.404-.01c21.959-.121 41.403 5.561 57.641 21.179 14.612 15.231 19.064 33.096 18.995 53.66l.021 4.925c.02 4.481.02 8.962.015 13.443 0 4.845.017 9.69.031 14.534.026 9.481.034 18.962.036 28.442q.003 11.566.018 23.132.041 32.83.039 65.662v7.146c-.002 19.118.028 38.237.072 57.355q.066 29.484.062 58.97c0 11.025.008 22.05.041 33.076q.043 14.081.014 28.162c-.01 4.783-.01 9.567.017 14.35q.034 6.586-.007 13.172-.008 2.366.018 4.731c.201 19.501-6.925 37.428-20.533 51.562-6.452 6.208-13.56 10.052-21.677 13.613l-2.754 1.246c-7.127 3.171-12.949 4.328-20.785 4.297l-2.479.003q-4.105 0-8.211-.01l-5.891.001q-7.995-.001-15.988-.013-8.355-.007-16.71-.008-15.82-.005-31.641-.022-18.011-.017-36.023-.023-37.05-.017-74.1-.052c1.364-3.511 2.845-6.524 4.903-9.677 2.761-4.483 4.767-9.022 6.661-13.912l.85-2.157q1.024-2.609 2.038-5.221l2.806-.004q33.834-.058 67.67-.186c10.908-.041 21.816-.074 32.725-.09q14.266-.02 28.532-.087c5.033-.023 10.067-.039 15.099-.038q7.116 0 14.232-.052 2.601-.013 5.205-.004c13.658.04 24.564-1.438 34.782-11.265 6.146-7.264 9.653-15.674 9.667-25.185l.012-2.921-.003-3.182.01-3.402q.01-5.653.011-11.306l.015-8.098q.021-11.009.025-22.017l.012-13.755q.02-19.051.027-38.103v-4.93l.002-4.952v-2.481q.009-19.89.047-39.778.036-20.434.038-40.867-.001-11.466.026-22.934.025-10.789.01-21.577-.002-3.957.013-7.912c.013-3.606.007-7.211-.004-10.817l.026-3.148c-.079-11.337-3.085-20.652-10.727-29.166-3.252-2.777-6.595-5.134-10.323-7.226l-2.843-1.615c-6.124-2.566-12.894-1.935-19.417-1.927l-4.58-.032c-4.129-.029-8.257-.038-12.385-.044-4.321-.01-8.64-.037-12.961-.062a9248 9248 0 0 0-24.523-.098c-9.309-.029-18.618-.073-27.927-.121a30419 30419 0 0 0-57.428-.231l-.632 3.206-.836 4.215-.414 2.108a200 200 0 0 1-3.861 15.891l-1.625 5.847-.913 3.275c-2.048 7.401-4.041 14.818-6.043 22.233l-.672 2.49a31668 31668 0 0 0-5.774 21.406c-3.847 14.266-7.605 28.549-11.163 42.89a7732 7732 0 0 1-9.435 37.51q-.939 3.701-1.874 7.402c-3.52 13.94-7.149 27.834-11.089 41.662-2.328 8.179-4.426 16.403-6.437 24.664-.923 3.757-1.939 7.48-2.997 11.2-.832 2.975-1.579 5.966-2.302 8.969l-.617 2.46c-.455 2.356-.455 2.356.617 5.798 2.374 2.443 4.915 4.554 7.552 6.71 7.886 7.347 12.66 18.301 13.237 28.984.602 17.894-1.1 32.447-8.402 48.952h-2.065l-.835 2.302c-4.608 10.72-15.523 20.605-26.001 25.568-16.212 5.83-32.449 8.124-48.423.661-5.228-2.673-9.191-4.952-12.48-9.951l-1.963-1.915c-2.183-2.233-3.757-4.397-5.391-7.053l-1.557-2.463c-5.279-11.298-5.322-26.747-2.645-38.742 1.214-3.102 2.612-5.814 4.33-8.666l1.039-1.755c6.423-10.745 13.863-20.315 22.349-29.495 14.666-14.589 14.666-14.589 21.643-33.267-.25-4.724-2.23-8.254-4.677-12.23-2.632-6.382-.86-13.435.605-19.939l.54-2.489q.565-2.586 1.141-5.169a1417 1417 0 0 0 1.726-7.875l1.11-5.048.515-2.357a115 115 0 0 1 3.558-12.505q.475-2.41.838-4.839c1.363-7.878 3.52-15.552 5.619-23.26q.85-3.175 1.662-6.36c2.327-9.011 5.056-17.806 8.116-26.593.736-2.116 1.462-4.236 2.187-6.358 2.852-8.285 5.967-16.417 9.449-24.461l1.019-2.395c11.869-27.757 27.575-52.969 46.075-76.738l1.977-2.54 1.509-1.94a72514 72514 0 0 0-117.244.215l-2.491.005q-19.951.046-39.902.062-20.476.021-40.953.085-12.632.039-25.263.037c-6.462 0-12.923.022-19.384.052q-3.971.013-7.943.005a1244 1244 0 0 0-10.852.036l-3.168-.024c-10.856.13-19.182 4.468-26.994 11.914-7.079 8.629-8.723 18.299-8.659 29.163l-.017 3.447c-.014 3.794-.007 7.587 0 11.381l-.021 8.182c-.019 6.629-.02 13.258-.014 19.886q.006 8.088-.002 16.174l-.003 2.329-.004 4.686c-.014 14.632-.009 29.265.003 43.898.01 13.368-.003 26.735-.028 40.103q-.038 20.62-.028 41.239c.003 7.71 0 15.419-.018 23.128a3896 3896 0 0 0 .002 19.691q.014 5.017-.004 10.034c-.013 3.637-.002 7.272.017 10.909l-.031 3.159c.128 12.418 4.087 22.791 12.935 31.559 8.127 6.468 16.01 7.534 26.147 7.555l3.541.031c3.854.032 7.708.05 11.561.067l8.028.061q9.476.07 18.952.12c7.195.04 14.39.091 21.583.142q22.19.16 44.381.282.751 1.954 1.497 3.911l.841 2.2c1.033 2.925 1.641 5.881 2.242 8.921 1.177 5.394 2.771 9.26 5.742 13.871v2.065q-25.413.183-50.826.268c-7.869.026-15.737.062-23.605.121q-10.299.078-20.597.096c-3.629.007-7.257.023-10.885.061-21.691.217-38.059-1.145-56.152-13.965l-2.109-1.472c-12.649-9.815-19.816-24.492-22.662-39.819l-.545-2.866c-.507-3.463-.621-6.741-.629-10.24l-.008-2.037c-.008-2.249-.008-4.499-.009-6.747l-.013-4.891a7908 7908 0 0 1-.023-13.433q-.01-7.244-.03-14.49-.035-17.497-.054-34.99l-.011-9.887a95220 95220 0 0 1-.073-79.212c-.013-19.08-.047-38.162-.091-57.242q-.065-29.399-.073-58.797a11710 11710 0 0 0-.05-33.001q-.045-14.053-.029-28.108c.005-4.776.002-9.553-.023-14.33q-.034-6.571-.003-13.143.005-2.365-.019-4.731c-.177-19.078 6.759-35.401 19.954-49.283 16.079-15.67 34.085-20.346 55.936-20.263" fill="#8c6ed6"/>
  <path d="m438.913 267.217 3.229-.014h3.525l3.762-.01q5.164-.014 10.328-.018 5.571-.007 11.141-.023c8.967-.021 17.933-.031 26.9-.04l12.673-.015a58720 58720 0 0 1 55.804-.047c14.668-.008 29.337-.034 44.005-.068q22.599-.051 45.196-.056c8.456-.002 16.913-.01 25.369-.037q10.802-.035 21.603-.021c3.673.004 7.345.002 11.017-.018 3.985-.022 7.971-.01 11.957.002l3.498-.034c11.748.097 20.369 4.639 28.669 12.804 8.932 9.692 11.048 18.919 10.754 31.971-.684 12.287-7.948 20.632-16.601 28.666-8.307 6.71-19.332 7.037-29.538 6.988l-3.746.019q-5.098.02-10.197.008c-3.678-.002-7.356.012-11.035.026-7.193.021-14.386.026-21.578.024a11399 11399 0 0 0-22.615.018l-2.547.003c-15.876.02-31.752.019-47.628.01-14.505-.005-29.012.017-43.518.052q-22.375.052-44.751.044c-8.365-.002-16.732.003-25.097.029q-10.682.034-21.363.006c-3.629-.01-7.258-.01-10.887.01-3.943.02-7.886.006-11.83-.015l-3.434.039c-11.996-.136-21.396-4.441-29.974-12.717-2.999-3.295-5.406-6.668-7.359-10.673l-1.138-2.166c-1.387-4.484-1.321-8.842-1.314-13.512l.005-2.947c.122-6.906.884-12.532 4.511-18.536l1.742-3.226c8.052-10.011 17.407-16.5 30.462-16.526" fill="#fdfcfd"/>
  <path d="m381.935 539.549 2.88-.01c9.738.075 18.369 1.594 27.055 6.075l2.143 1.092c12.201 6.485 20.276 16.29 26.76 28.262 3.589-.369 3.589-.369 6.4-2.387 2.788-2.615 6.159-3.979 9.6-5.548l2.116-1.002c3.078-1.423 5.293-2.418 8.723-2.418l-.831 3.928q-1.129 5.343-2.245 10.689a536 536 0 0 1-1.751 8.089l-.529 2.392-.516 2.306c-.419 2.687-.419 2.687-.129 6.033.137 4.024-.017 7.102-1.225 10.951-3.698 3.57-8.07 5.58-12.635 7.821-5.393 2.781-10.561 5.964-15.772 9.068-3.274 1.943-6.565 3.859-9.855 5.775q-6.117 3.563-12.218 7.154c-17.867 10.414-36.705 17.523-57.629 12.637-13.756-5.428-22.706-15.425-29.138-28.463-5.43-13.3-4.893-28.577.204-41.903 7.123-16.906 20.139-29.736 36.913-37.121 7.281-2.815 13.913-3.555 21.677-3.419" fill="#8c6ed6"/>
  <path d="M696.774 435.613c3.484 1.741 5.579 2.934 7.375 6.428 3.238 10.5.825 21.538-3.933 31.084-10.112 18.967-25.604 33.427-42.668 46.101l-2.188 1.634a409 409 0 0 1-32.908 22.108l-4.604 2.811c-13.66 8.299-27.543 16.202-41.437 24.098a9144 9144 0 0 0-15.831 9.027l-2.663 1.517-2.461 1.406-2.246 1.28a194 194 0 0 0-5.02 3.035c-2.125 1.213-2.125 1.213-4.19 1.213.372-5.388 1.217-10.211 2.782-15.383 3.086-10.589 5.6-21.317 8.186-32.036q1.14-4.714 2.283-9.427.705-2.908 1.406-5.818c3.458-14.279 3.458-14.279 5.65-16.526l2.145-1.262 2.524-1.524 2.895-1.637 3.283-1.895q3.67-2.106 7.355-4.186c3.633-2.059 7.211-4.204 10.782-6.37 7.143-4.323 14.374-8.487 21.613-12.645 7.999-4.599 15.972-9.23 23.871-14.001 8.692-5.25 17.434-10.411 26.194-15.548l1.946-1.144q6.145-3.605 12.311-7.179l2.803-1.645 2.464-1.419 2.071-1.204c3.656-1.672 6.231-1.48 10.211-.893" fill="#8c6dd9"/>
  <path d="m460.015 290.559 2.681-.025c2.957-.021 5.915-.012 8.872-.004a3031 3031 0 0 1 23.657-.056c4.812.002 9.625-.008 14.437-.018 11.355-.024 22.71-.024 34.063-.011 11.71.012 23.419-.013 35.128-.057a7041 7041 0 0 1 30.173-.042c6.005.003 12.009-.002 18.014-.031 5.649-.026 11.296-.021 16.945.005q3.105.008 6.211-.018c2.833-.022 5.662-.005 8.493.021l2.47-.045c6.348.123 10.543 2.467 14.969 7.012 2.753 4.686 2.618 9.135 2.065 14.452-2.252 5.454-6.569 8.165-11.355 11.355a108 108 0 0 1-8.396.268l-2.624.012c-2.912.01-5.824.007-8.737.003l-6.25.015a6026 6026 0 0 1-17.007.012q-7.095 0-14.19.008-16.741.017-33.482.006-17.274-.007-34.547.028-14.824.027-29.649.021a6970 6970 0 0 0-17.711.015q-8.332.02-16.664-.002-3.058-.004-6.114.009c-2.784.01-5.568.002-8.351-.01l-2.438.023c-5.867-.059-10.954-1.079-15.508-5.091-4.379-5.905-5.194-9.679-4.395-16.996 4.129-8.578 10.323-10.946 19.241-10.86" fill="#8b6ed6"/>
  <path d="m383.226 563.355 2.609-.064c9.369-.059 16.827 3.57 23.972 9.612 6.292 7.802 8.267 13.705 7.226 23.742-3.648 12.088-13.446 18.186-24.024 23.879-9.681 4.98-20.235 9.615-31.137 6.331-7.508-3.013-11.943-7.807-16.065-14.726-2.814-8.441-1.945-18.644 1.811-26.597 4.606-8.261 10.53-14.105 18.834-18.822h4.129v-2.065c4.239-1.413 8.204-1.263 12.645-1.29m123.613 101.419c5.123 4.783 7.955 9.253 8.641 16.339q.061 2.282.069 4.565l.011 2.436c-.171 8.879-2.68 16.867-5.625 25.177h-2.065l-.815 2.295c-4.225 9.694-12.49 14.449-21.894 18.35-3.474 1.158-6.214 1.206-9.87 1.226l-3.617.043c-3.029-.237-3.029-.237-5.093-2.302l-2.323-.709c-6.04-2.883-9.587-8.758-12.129-14.775-2.314-14.198 2.438-24.594 10.355-36.072 10.498-13.623 27.025-28.82 44.355-16.573" fill="#fcfcfc"/>
  <path d="M350.259 291.274c3.871 2.762 7.316 5.602 8.967 10.145.679 5.037.696 9.706-1.612 14.323-3.02 3.871-5.355 5.243-9.742 7.355l-2.065 1.032c-6.664.565-10.02-.242-15.484-4.129-4.916-5.304-5.596-9.689-5.512-16.726.541-4.449 2.191-7.154 5.512-10.113 5.993-3.643 13.461-5.169 19.936-1.887" fill="#f9f9fa"/>
  <path d="M294.194 292.903c3.076 2.175 4.916 3.909 6.194 7.484.673 5.619.73 10.715-1.548 15.936-4.561 4.674-8.896 8.058-15.613 8.387-4.53-.281-7.238-1.724-10.71-4.71-5.122-5.815-5.639-9.58-5.589-17.258.546-4.325 1.803-6.4 4.939-9.339 6.769-5.128 15.271-5.006 22.327-.5" fill="#fbfafc"/>
  <path d="M510.968 555.355c3.086 2.55 5.011 4.934 7.226 8.258.506 5.361-.044 8.942-3.097 13.419-4.157 2.97-8.197 3.813-13.225 3.678-4.163-1.07-6.237-4.311-8.452-7.807-1.669-3.339-1.629-6.713-1.032-10.323 1.793-3.407 4.275-5.642 7.549-7.677 3.89-.815 7.227-.758 11.032.451" fill="#fafafb"/>
</svg>
